<?xml version="1.0" encoding="UTF-8"?>
<svg width="20px" height="20px" viewBox="0 0 20 20" version="1.1" xmlns="http://www.w3.org/2000/svg" xmlns:xlink="http://www.w3.org/1999/xlink">
    <!-- Generator: Sketch 47.1 (45422) - http://www.bohemiancoding.com/sketch -->
    <title>icon-phone</title>
    <desc>Created with Sketch.</desc>
    <defs></defs>
    <g id="Page-1" stroke="none" stroke-width="1" fill="none" fill-rule="evenodd">
        <g id="icon-phone" fill-rule="nonzero" fill="#D22856">
            <path d="M9.848,0 C6.34,0 2.823,0.628 1.546,1.878 C0.488,2.918 0.134,4.752 0.016,5.913 C0.016,5.913 0,6.028 0,6.078 C0,6.532 0.369,6.898 0.819,6.898 C0.873,6.898 2.847,6.737 4.037,6.639 C4.066,6.635 4.095,6.631 4.123,6.622 C4.566,6.61 4.924,6.25 4.924,5.803 L4.927,4.186 C4.927,3.686 5.334,3.284 5.834,3.284 L13.861,3.284 C14.36,3.284 14.768,3.686 14.768,4.186 L14.771,5.803 C14.771,6.25 15.127,6.611 15.573,6.623 C15.6,6.632 15.629,6.636 15.658,6.64 C16.848,6.738 18.822,6.899 18.875,6.899 C19.326,6.899 19.697,6.533 19.697,6.079 C19.697,6.029 19.679,5.914 19.679,5.914 C19.561,4.753 19.207,2.919 18.149,1.879 C16.873,0.628 13.356,0 9.848,0 Z M9.848,10.67 C8.94,10.67 8.205,11.403 8.205,12.31 C8.205,13.217 8.939,13.951 9.848,13.951 C10.754,13.951 11.489,13.218 11.489,12.31 C11.488,11.404 10.754,10.67 9.848,10.67 Z M8.616,6.975 L8.616,5.951 C8.616,5.384 8.156,4.925 7.591,4.925 C7.025,4.925 6.567,5.384 6.567,5.951 L6.567,6.975 L1.03,12.888 C0.648,13.264 0.411,13.782 0.411,14.358 L0.411,16.004 C0.411,16.911 1.145,17.647 2.052,17.647 L2.463,17.647 L2.463,18.67 C2.463,19.238 2.923,19.696 3.489,19.696 C4.054,19.696 4.513,19.238 4.513,18.67 L4.513,17.647 L15.182,17.647 L15.182,18.67 C15.182,19.238 15.642,19.696 16.207,19.696 C16.774,19.696 17.233,19.238 17.233,18.67 L17.233,17.647 L17.644,17.647 C18.549,17.647 19.284,16.912 19.284,16.004 L19.284,14.358 C19.284,13.782 19.048,13.264 18.666,12.888 L13.13,6.975 L13.13,5.951 C13.13,5.384 12.671,4.925 12.106,4.925 C11.539,4.925 11.079,5.384 11.079,5.951 L11.079,6.975 L8.616,6.975 Z M9.848,9.028 C11.662,9.028 13.13,10.496 13.13,12.31 C13.13,14.124 11.662,15.592 9.848,15.592 C8.035,15.592 6.567,14.124 6.567,12.31 C6.567,10.496 8.034,9.028 9.848,9.028 Z" id="Shape"></path>
        </g>
    </g>
</svg>
