<?xml version="1.0" encoding="UTF-8"?>
<svg width="18px" height="14px" viewBox="0 0 18 14" version="1.1" xmlns="http://www.w3.org/2000/svg" xmlns:xlink="http://www.w3.org/1999/xlink">
    <!-- Generator: Sketch 47.1 (45422) - http://www.bohemiancoding.com/sketch -->
    <title>icon-mail</title>
    <desc>Created with Sketch.</desc>
    <defs></defs>
    <g id="Page-1" stroke="none" stroke-width="1" fill="none" fill-rule="evenodd">
        <g id="icon-mail" fill-rule="nonzero" fill="#CF2755">
            <path d="M14.914,1.814 C16.111,0.816 15.816,0 14.257,0 L3.731,0 C2.171,0 1.877,0.816 3.074,1.814 L6.816,4.932 C8.013,5.93 9.974,5.93 11.171,4.932 L14.914,1.814 Z" id="Shape"></path>
            <path d="M11.913,7.044 C10.715,8.042 9.718,8.869 9.695,8.88 C9.695,8.88 9.695,8.88 9.675,8.893 C9.601,8.949 9.523,8.995 9.44,9.029 C9.407,9.044 9.374,9.063 9.34,9.077 C9.23,9.111 9.117,9.135 9.005,9.136 C9.002,9.136 8.998,9.137 8.995,9.137 C8.995,9.137 8.995,9.137 8.994,9.137 C8.993,9.137 8.993,9.137 8.993,9.137 C8.99,9.137 8.986,9.136 8.983,9.136 C8.87,9.134 8.759,9.111 8.648,9.077 C8.614,9.063 8.58,9.044 8.548,9.029 C8.465,8.995 8.388,8.949 8.313,8.893 C8.293,8.88 8.293,8.88 8.293,8.88 C8.271,8.868 7.273,8.042 6.075,7.044 L2.178,3.796 C0.979,2.798 0,3.257 0,4.816 L0,11.131 C0,12.691 1.275,13.966 2.835,13.966 L15.153,13.966 C16.713,13.966 17.988,12.691 17.988,11.131 L17.988,4.816 C17.988,3.257 17.009,2.798 15.81,3.796 L11.913,7.044 Z" id="Shape"></path>
        </g>
    </g>
</svg>
