<?xml version="1.0" encoding="UTF-8"?>
<svg width="147px" height="41px" viewBox="0 0 147 41" version="1.1" xmlns="http://www.w3.org/2000/svg" xmlns:xlink="http://www.w3.org/1999/xlink">
    <!-- Generator: Sketch 47.1 (45422) - http://www.bohemiancoding.com/sketch -->
    <title>logo-pink-white-tablet</title>
    <desc>Created with Sketch.</desc>
    <defs></defs>
    <g id="Page-1" stroke="none" stroke-width="1" fill="none" fill-rule="evenodd">
        <g id="logo-pink-white-tablet" fill-rule="nonzero" fill="#D22856">
            <g id="Group" transform="translate(71.000000, 17.000000)">
                <path d="M0.874,1.661 C0.874,0.953 1.454,0.373 2.13,0.373 L9.31,0.373 C14.397,0.373 17.746,3.077 17.746,7.519 L17.746,7.583 C17.746,12.444 13.689,14.956 8.892,14.956 L3.417,14.956 L3.417,21.781 C3.417,22.489 2.837,23.069 2.129,23.069 C1.453,23.069 0.873,22.489 0.873,21.781 L0.873,1.661 L0.874,1.661 Z M8.988,12.641 C12.722,12.641 15.17,10.645 15.17,7.682 L15.17,7.619 C15.17,4.399 12.756,2.725 9.117,2.725 L3.418,2.725 L3.418,12.642 L8.988,12.642 L8.988,12.641 Z" id="Shape"></path>
                <path d="M22.603,1.5 C22.603,0.792 23.182,0.212 23.858,0.212 C24.567,0.212 25.146,0.792 25.146,1.5 L25.146,21.783 C25.146,22.491 24.567,23.07 23.858,23.07 C23.182,23.07 22.603,22.491 22.603,21.783 L22.603,1.5 Z" id="Shape"></path>
                <path d="M31.744,1.532 C31.744,0.856 32.324,0.276 33,0.276 L33.354,0.276 C33.934,0.276 34.289,0.566 34.642,1.016 L48.326,18.466 L48.326,1.468 C48.326,0.792 48.873,0.212 49.582,0.212 C50.258,0.212 50.806,0.792 50.806,1.468 L50.806,21.817 C50.806,22.493 50.325,23.007 49.648,23.007 L49.519,23.007 C48.971,23.007 48.584,22.686 48.2,22.235 L34.225,4.367 L34.225,21.817 C34.225,22.493 33.678,23.073 32.969,23.073 C32.293,23.073 31.746,22.493 31.746,21.817 L31.746,1.532 L31.744,1.532 Z" id="Shape"></path>
                <path d="M57.173,1.5 C57.173,0.792 57.753,0.212 58.43,0.212 C59.138,0.212 59.716,0.792 59.716,1.5 L59.716,13.831 L72.564,0.663 C72.854,0.406 73.143,0.212 73.562,0.212 C74.238,0.212 74.787,0.824 74.787,1.468 C74.787,1.822 74.625,2.112 74.367,2.369 L66.383,10.289 L74.947,20.85 C75.172,21.141 75.301,21.397 75.301,21.785 C75.301,22.461 74.723,23.073 74.015,23.073 C73.532,23.073 73.209,22.815 72.985,22.493 L64.583,12.03 L59.72,16.891 L59.72,21.785 C59.72,22.493 59.142,23.073 58.434,23.073 C57.757,23.073 57.177,22.493 57.177,21.785 L57.177,1.5 L57.173,1.5 Z" id="Shape"></path>
            </g>
            <path d="M60.462,28.016 C60.46,28.007 55.287,6.651 55.287,6.651 C54.926,4.303 52.694,0 46.688,0 C45.859,0 45.188,0.671 45.188,1.5 C45.188,2.329 45.859,3 46.688,3 C51.544,3 52.263,6.729 52.327,7.143 L57.094,26.844 L55.021,26.844 C54.279,20.917 49.219,16.313 43.094,16.313 C36.969,16.313 31.908,20.917 31.167,26.844 L29.347,26.844 C28.606,20.917 23.545,16.313 17.42,16.313 C11.295,16.313 6.235,20.917 5.493,26.844 L3.42,26.844 L8.187,7.143 C8.25,6.729 8.97,3 13.826,3 C14.655,3 15.326,2.329 15.326,1.5 C15.326,0.671 14.655,0 13.826,0 C7.82,0 5.588,4.303 5.227,6.651 C5.227,6.651 0.054,28.007 0.052,28.016 C-0.214,29.125 0.583,29.842 1.478,29.842 C1.49,29.842 1.501,29.846 1.514,29.846 L5.496,29.846 C6.237,35.772 11.298,40.376 17.423,40.376 C23.548,40.376 28.608,35.772 29.35,29.846 L31.164,29.846 C31.906,35.772 36.966,40.376 43.091,40.376 C49.216,40.376 54.277,35.772 55.018,29.846 L59,29.846 C59.012,29.846 59.023,29.842 59.036,29.842 C59.931,29.842 60.728,29.125 60.462,28.016 Z M26.315,29.844 C25.6,34.116 21.894,37.375 17.419,37.375 C12.944,37.375 9.239,34.116 8.523,29.844 C8.441,29.356 8.388,28.856 8.388,28.344 C8.388,27.832 8.441,27.333 8.523,26.844 C9.238,22.573 12.944,19.313 17.419,19.313 C21.894,19.313 25.599,22.573 26.315,26.844 C26.397,27.333 26.45,27.832 26.45,28.344 C26.45,28.856 26.397,29.355 26.315,29.844 Z M51.99,29.844 C51.274,34.116 47.569,37.375 43.094,37.375 C38.619,37.375 34.913,34.116 34.198,29.844 C34.116,29.356 34.063,28.856 34.063,28.344 C34.063,27.832 34.116,27.333 34.198,26.844 C34.914,22.573 38.619,19.313 43.094,19.313 C47.569,19.313 51.275,22.573 51.99,26.844 C52.072,27.333 52.125,27.832 52.125,28.344 C52.125,28.856 52.072,29.355 51.99,29.844 Z" id="Shape"></path>
        </g>
    </g>
</svg>
