<?xml version="1.0" encoding="UTF-8"?>
<svg width="75px" height="23px" viewBox="0 0 75 23" version="1.1" xmlns="http://www.w3.org/2000/svg" xmlns:xlink="http://www.w3.org/1999/xlink">
    <!-- Generator: Sketch 47.1 (45422) - http://www.bohemiancoding.com/sketch -->
    <title>logo-pink-white-mobile</title>
    <desc>Created with Sketch.</desc>
    <defs></defs>
    <g id="Page-1" stroke="none" stroke-width="1" fill="none" fill-rule="evenodd">
        <g id="logo-pink-white-mobile" fill-rule="nonzero" fill="#D22856">
            <path d="M0,1.449 C0,0.741 0.58,0.161 1.256,0.161 L8.436,0.161 C13.523,0.161 16.872,2.865 16.872,7.308 L16.872,7.372 C16.872,12.233 12.815,14.745 8.018,14.745 L2.544,14.745 L2.544,21.57 C2.544,22.278 1.964,22.858 1.256,22.858 C0.58,22.859 0,22.279 0,21.571 L0,1.449 Z M8.114,12.428 C11.848,12.428 14.296,10.432 14.296,7.47 L14.296,7.405 C14.296,4.185 11.881,2.511 8.242,2.511 L2.544,2.511 L2.544,12.428 L8.114,12.428 Z" id="Shape"></path>
            <path d="M21.729,1.288 C21.729,0.58 22.308,0 22.983,0 C23.692,0 24.271,0.58 24.271,1.288 L24.271,21.571 C24.271,22.279 23.692,22.859 22.983,22.859 C22.307,22.859 21.728,22.279 21.728,21.571 L21.728,1.288 L21.729,1.288 Z" id="Shape"></path>
            <path d="M30.87,1.32 C30.87,0.644 31.449,0.064 32.126,0.064 L32.48,0.064 C33.06,0.064 33.414,0.354 33.768,0.804 L47.452,18.254 L47.452,1.256 C47.451,0.58 47.998,0 48.707,0 C49.383,0 49.93,0.58 49.93,1.256 L49.93,21.604 C49.93,22.28 49.448,22.795 48.772,22.795 L48.643,22.795 C48.095,22.795 47.709,22.473 47.323,22.023 L33.349,4.153 L33.349,21.603 C33.349,22.279 32.802,22.859 32.094,22.859 C31.417,22.859 30.87,22.279 30.87,21.603 L30.87,1.32 L30.87,1.32 Z" id="Shape"></path>
            <path d="M56.3,1.288 C56.3,0.58 56.879,0 57.556,0 C58.264,0 58.843,0.58 58.843,1.288 L58.843,13.619 L71.689,0.451 C71.979,0.193 72.269,0 72.688,0 C73.364,0 73.912,0.612 73.912,1.256 C73.912,1.61 73.751,1.9 73.493,2.157 L65.509,10.077 L74.073,20.638 C74.298,20.928 74.427,21.185 74.427,21.572 C74.427,22.248 73.848,22.86 73.14,22.86 C72.657,22.86 72.334,22.602 72.11,22.28 L63.707,11.817 L58.845,16.678 L58.845,21.572 C58.845,22.28 58.266,22.86 57.558,22.86 C56.881,22.86 56.302,22.28 56.302,21.572 L56.302,1.288 L56.3,1.288 Z" id="Shape"></path>
        </g>
    </g>
</svg>
