<?xml version="1.0" encoding="UTF-8"?>
<svg width="147px" height="41px" viewBox="0 0 147 41" version="1.1" xmlns="http://www.w3.org/2000/svg" xmlns:xlink="http://www.w3.org/1999/xlink">
    <!-- Generator: Sketch 47.1 (45422) - http://www.bohemiancoding.com/sketch -->
    <title>logo-pink-white-desktop</title>
    <desc>Created with Sketch.</desc>
    <defs></defs>
    <g id="Page-1" stroke="none" stroke-width="1" fill="none" fill-rule="evenodd">
        <g id="logo-pink-white-desktop" fill-rule="nonzero" fill="#D22856">
            <g id="Group" transform="translate(71.000000, 17.000000)">
                <path d="M0.874,1.661 C0.874,0.953 1.454,0.373 2.13,0.373 L9.31,0.373 C14.397,0.373 17.746,3.077 17.746,7.519 L17.746,7.583 C17.746,12.444 13.689,14.956 8.892,14.956 L3.417,14.956 L3.417,21.781 C3.417,22.489 2.837,23.069 2.129,23.069 C1.453,23.069 0.873,22.489 0.873,21.781 L0.873,1.661 L0.874,1.661 Z M8.988,12.641 C12.722,12.641 15.17,10.645 15.17,7.682 L15.17,7.619 C15.17,4.399 12.756,2.725 9.117,2.725 L3.418,2.725 L3.418,12.642 L8.988,12.642 L8.988,12.641 Z" id="Shape"></path>
                <path d="M22.603,1.5 C22.603,0.792 23.182,0.212 23.858,0.212 C24.567,0.212 25.146,0.792 25.146,1.5 L25.146,21.783 C25.146,22.491 24.567,23.07 23.858,23.07 C23.182,23.07 22.603,22.491 22.603,21.783 L22.603,1.5 Z" id="Shape"></path>
                <path d="M31.744,1.532 C31.744,0.856 32.324,0.276 33,0.276 L33.354,0.276 C33.934,0.276 34.289,0.566 34.642,1.016 L48.326,18.466 L48.326,1.468 C48.326,0.792 48.873,0.212 49.582,0.212 C50.258,0.212 50.806,0.792 50.806,1.468 L50.806,21.817 C50.806,22.493 50.325,23.007 49.648,23.007 L49.519,23.007 C48.971,23.007 48.584,22.686 48.2,22.235 L34.225,4.367 L34.225,21.817 C34.225,22.493 33.678,23.073 32.969,23.073 C32.293,23.073 31.746,22.493 31.746,21.817 L31.746,1.532 L31.744,1.532 Z" id="Shape"></path>
                <path d="M57.173,1.5 C57.173,0.792 57.753,0.212 58.43,0.212 C59.138,0.212 59.716,0.792 59.716,1.5 L59.716,13.831 L72.564,0.663 C72.854,0.406 73.143,0.212 73.562,0.212 C74.238,0.212 74.787,0.824 74.787,1.468 C74.787,1.822 74.625,2.112 74.367,2.369 L66.383,10.289 L74.947,20.85 C75.172,21.141 75.301,21.397 75.301,21.785 C75.301,22.461 74.723,23.073 74.015,23.073 C73.532,23.073 73.209,22.815 72.985,22.493 L64.583,12.03 L59.72,16.891 L59.72,21.785 C59.72,22.493 59.142,23.073 58.434,23.073 C57.757,23.073 57.177,22.493 57.177,21.785 L57.177,1.5 L57.173,1.5 Z" id="Shape"></path>
            </g>
            <path d="M98.498,9.875 C96.496,9.875 94.875,8.252 94.875,6.251 C94.875,8.252 93.252,9.875 91.25,9.875 C93.252,9.875 94.875,11.498 94.875,13.499 C94.875,11.498 96.496,9.875 98.498,9.875 Z" id="Shape"></path>
            <g id="Group">
                <path d="M43.094,19.313 C43.34,19.313 43.583,19.327 43.824,19.346 C43.387,18.618 42.597,18.125 41.688,18.125 C40.811,18.125 40.074,17.557 39.804,16.771 C39.077,16.979 38.379,17.253 37.715,17.587 C37.777,17.604 37.837,17.625 37.903,17.625 C39.007,17.625 39.903,18.521 39.903,19.625 C39.903,19.721 39.888,19.813 39.875,19.906 C40.875,19.524 41.959,19.313 43.094,19.313 Z" id="Shape"></path>
                <path d="M60.462,28.016 C60.46,28.007 55.287,6.651 55.287,6.651 C54.926,4.303 52.694,0 46.688,0 C45.859,0 45.188,0.671 45.188,1.5 C45.188,2.329 45.859,3 46.688,3 C51.544,3 52.263,6.729 52.327,7.143 L57.094,26.844 L55.021,26.844 C54.576,23.287 52.568,20.216 49.716,18.322 C48.819,18.701 48.187,19.591 48.187,20.625 C48.187,20.713 48.172,20.796 48.161,20.881 C50.152,22.239 51.576,24.37 51.99,26.845 C52.072,27.334 52.125,27.833 52.125,28.345 C52.125,28.857 52.072,29.357 51.99,29.845 C51.274,34.117 47.569,37.376 43.094,37.376 C38.619,37.376 34.913,34.117 34.198,29.845 C34.116,29.357 34.063,28.857 34.063,28.345 C34.063,27.833 34.116,27.334 34.198,26.845 C34.345,25.967 34.625,25.134 35.006,24.362 C33.972,24.284 33.154,23.43 33.154,22.377 C33.154,22.188 33.077,22.02 32.962,21.888 C32.024,23.357 31.393,25.038 31.167,26.846 L29.347,26.846 C28.606,20.919 23.545,16.315 17.42,16.315 C11.295,16.315 6.235,20.917 5.493,26.844 L3.42,26.844 L8.187,7.143 C8.25,6.729 8.97,3 13.826,3 C14.655,3 15.326,2.329 15.326,1.5 C15.326,0.671 14.655,0 13.826,0 C7.82,0 5.588,4.303 5.227,6.651 C5.227,6.651 0.054,28.007 0.052,28.016 C-0.214,29.125 0.583,29.842 1.478,29.842 C1.49,29.842 1.501,29.846 1.514,29.846 L5.496,29.846 C5.575,30.474 5.711,31.083 5.883,31.677 C5.942,31.571 5.985,31.453 5.985,31.323 C5.985,30.219 6.881,29.323 7.985,29.323 C8.151,29.323 8.309,29.348 8.463,29.386 C8.42,29.043 8.389,28.698 8.389,28.344 C8.389,27.832 8.442,27.333 8.524,26.844 C9.239,22.573 12.945,19.313 17.42,19.313 C21.895,19.313 25.6,22.573 26.316,26.844 C26.398,27.333 26.451,27.832 26.451,28.344 C26.451,28.856 26.398,29.356 26.316,29.844 C25.601,34.116 21.895,37.375 17.42,37.375 C15.398,37.375 13.537,36.705 12.034,35.581 C11.684,35.883 11.234,36.072 10.735,36.072 C10.322,36.072 9.986,36.408 9.986,36.82 C9.986,37.11 9.921,37.384 9.81,37.632 C11.885,39.34 14.532,40.375 17.424,40.375 C23.549,40.375 28.609,35.771 29.351,29.845 L31.165,29.845 C31.907,35.771 36.967,40.375 43.092,40.375 C49.217,40.375 54.278,35.771 55.019,29.845 L59,29.845 C59.012,29.845 59.023,29.841 59.036,29.841 C59.931,29.842 60.728,29.125 60.462,28.016 Z" id="Shape"></path>
            </g>
            <path d="M50.686,16.125 C48.201,16.125 46.187,14.111 46.187,11.626 C46.187,14.111 44.173,16.125 41.688,16.125 C44.173,16.125 46.187,18.139 46.187,20.624 C46.187,18.139 48.2,16.125 50.686,16.125 Z" id="Shape"></path>
            <path d="M37.904,19.626 C36.385,19.626 35.155,18.396 35.155,16.877 C35.155,18.396 33.925,19.626 32.406,19.626 C33.925,19.626 35.155,20.855 35.155,22.375 C35.155,20.855 36.386,19.626 37.904,19.626 Z" id="Shape"></path>
            <path d="M10.734,34.072 C9.215,34.072 7.985,32.842 7.985,31.322 C7.985,32.842 6.755,34.072 5.236,34.072 C6.755,34.072 7.985,35.301 7.985,36.82 C7.985,35.303 9.215,34.072 10.734,34.072 Z" id="Shape"></path>
        </g>
    </g>
</svg>